<?xml version="1.0" encoding="UTF-8"?>
<svg width="500" height="500" version="1.1" viewBox="0 0 132.29 132.29" xmlns="http://www.w3.org/2000/svg">
  <g fill="none" stroke-linecap="round">
    <path d="m71.12 56.222 8.3873-6.9e-5c10.96 0 19.844-8.885 19.844-19.844 0-10.96-8.885-19.844-19.844-19.844l-46.567-2.18e-4v79.376c2e-5 10.959 8.8844 19.844 19.844 19.844h18.258c10.959 0 19.843-8.8845 19.843-19.844-1e-5 -10.959-8.8844-19.844-19.844-19.844s-19.844-8.885-19.844-19.844c0-10.96 8.884-19.844 19.843-19.844h9.393" stroke="#fff" stroke-width="15.875"/>
    <g stroke-width="13.229">
      <path d="m32.94 95.91-3e-6 -79.376 46.567 2.18e-4c10.959 5.1e-5 19.844 8.8844 19.844 19.844 0 10.959-8.8844 19.844-19.844 19.844l-8.3873 6.9e-5" stroke="#006363"/>
      <path d="m32.94 95.91c1.8e-5 10.959 8.8844 19.844 19.844 19.844" stroke="#ff904f"/>
      <path d="m80.433 36.378h-9.393c-10.959 0-19.843 8.8845-19.843 19.844 1.8e-5 10.959 8.8844 19.844 19.844 19.844m-18.257 39.688h18.258c10.959 0 19.843-8.8845 19.843-19.844-1.8e-5 -10.959-8.8844-19.844-19.844-19.844" stroke="#8100d6"/>
    </g>
  </g>
</svg>
